<svg xmlns="http://www.w3.org/2000/svg" viewBox="0 0 240 240" width="240" height="240" role="img" aria-label="bestCXreviews monogram">
<rect width="240" height="240" rx="52" fill="#16191D"/>
<g transform="translate(0,172.28)"><g fill="#23A877"><g transform="translate(22.935,0) scale(0.15000,-0.15000)"><path d="M372.79998779296875 -16.7999267578125Q272.800048828125 -16.7999267578125 196.70010375976562 29.00006103515625Q120.60015869140625 74.800048828125 78.10018920898438 157.10003662109375Q35.6002197265625 239.4000244140625 35.6002197265625 349Q35.6002197265625 458.5999755859375 78.10018920898438 540.3999633789062Q120.60015869140625 622.199951171875 196.70010375976562 667.9999389648438Q272.800048828125 713.7999267578125 372.79998779296875 713.7999267578125Q485.79986572265625 713.7999267578125 567.5997924804688 657.3999938964844Q649.3997192382812 601.0000610351562 684.9996948242188 501.8001708984375L550.2005004882812 453.200439453125Q529.0004272460938 511.6005859375 483.4002990722656 544.3006591796875Q437.8001708984375 577.000732421875 372.79998779296875 577.000732421875Q313.7998046875 577.000732421875 269.9996643066406 549.400634765625Q226.19952392578125 521.800537109375 202.49945068359375 471.1003723144531Q178.79937744140625 420.40020751953125 178.79937744140625 349Q178.79937744140625 277.59979248046875 202.49945068359375 226.39962768554688Q226.19952392578125 175.199462890625 269.9996643066406 147.599365234375Q313.7998046875 119.999267578125 372.79998779296875 119.999267578125Q437.8001708984375 119.999267578125 483.4002990722656 152.79934692382812Q529.0004272460938 185.59942626953125 550.2005004882812 243.799560546875L684.9996948242188 195.39984130859375Q649.3997192382812 97.199951171875 567.5997924804688 40.20001220703125Q485.79986572265625 -16.7999267578125 372.79998779296875 -16.7999267578125Z"/></g></g></g>
<path d="M203.57,55.95 L167.88,103.12 L194.86,123.54 L230.56,76.37 Z M149.08,184.05 L184.77,136.88 L157.79,116.46 L122.09,163.63 Z" fill="#F4F0E8"/><path d="M122.09,76.37 L157.79,123.54 L184.77,103.12 L149.08,55.95 Z M230.56,163.63 L194.86,116.46 L167.88,136.88 L203.57,184.05 Z" fill="#23A877"/>
</svg>