<svg xmlns="http://www.w3.org/2000/svg" viewBox="0 0 754.50 129.70" width="754" height="130" role="img" aria-label="bestCXreviews">
<g transform="translate(30.00,99.70)"><g fill="#F4F0E8"><g transform="translate(0.000,0) scale(0.10000,-0.10000)"><path d="M322.00048828125 -9.2000732421875Q281.8009033203125 -9.2000732421875 246.301025390625 6.69976806640625Q210.8011474609375 22.599609375 184.901123046875 56.399658203125Q159.0010986328125 90.19970703125 146.0010986328125 143.600341796875L175.201171875 136.9993896484375V0H64.799560546875V697H175.201171875V355.2005615234375L150.0010986328125 354.7996826171875Q159.801025390625 401.8001708984375 184.4010009765625 434.6002197265625Q209.0009765625 467.4002685546875 244.60089111328125 484.8001708984375Q280.2008056640625 502.2000732421875 322.00048828125 502.2000732421875Q381.600341796875 502.2000732421875 430.40020751953125 471.60009765625Q479.2000732421875 441.0001220703125 508.0 384.0001220703125Q536.7999267578125 327.0001220703125 536.7999267578125 247Q536.7999267578125 174.199951171875 510.60003662109375 115.99993896484375Q484.400146484375 57.7999267578125 436.10028076171875 24.2999267578125Q387.8004150390625 -9.2000732421875 322.00048828125 -9.2000732421875ZM294.7996826171875 92.8013916015625Q334.1993408203125 92.8013916015625 363.4990234375 111.90118408203125Q392.7987060546875 131.0009765625 409.0985107421875 165.8006591796875Q425.3983154296875 200.600341796875 425.3983154296875 247Q425.3983154296875 293.399658203125 409.0985107421875 327.99932861328125Q392.7987060546875 362.5989990234375 363.4990234375 381.69879150390625Q334.1993408203125 400.798583984375 294.7996826171875 400.798583984375Q255.800048828125 400.798583984375 226.600341796875 381.498779296875Q197.400634765625 362.198974609375 181.40081787109375 327.59930419921875Q165.4010009765625 292.9996337890625 165.4010009765625 247Q165.4010009765625 201.0003662109375 181.40081787109375 166.20068359375Q197.400634765625 131.4010009765625 226.600341796875 112.1011962890625Q255.800048828125 92.8013916015625 294.7996826171875 92.8013916015625Z"/></g><g transform="translate(58.400,0) scale(0.10000,-0.10000)"><path d="M280.800048828125 -9.2000732421875Q218.7998046875 -9.2000732421875 173.49969482421875 11.0999755859375Q128.1995849609375 31.4000244140625 99.09954833984375 67.00006103515625Q69.99951171875 102.60009765625 55.8995361328125 148.10009765625Q41.799560546875 193.60009765625 41.799560546875 243.4000244140625Q41.799560546875 292.39990234375 55.59954833984375 338.69989013671875Q69.3995361328125 384.9998779296875 97.299560546875 421.7999267578125Q125.1995849609375 458.5999755859375 168.99969482421875 480.4000244140625Q212.7998046875 502.2000732421875 272.800048828125 502.2000732421875Q330.2000732421875 502.2000732421875 372.70013427734375 482.7000732421875Q415.2001953125 463.2000732421875 442.9002685546875 428.800048828125Q470.600341796875 394.4000244140625 484.400390625 349.9998779296875Q498.200439453125 305.5997314453125 498.200439453125 255.7994384765625Q498.200439453125 249.3992919921875 497.700439453125 236.29937744140625Q497.200439453125 223.199462890625 495.200439453125 210.1993408203125H152.6011962890625Q156.80126953125 151.0001220703125 192.80108642578125 119.8006591796875Q228.8009033203125 88.6011962890625 285.4002685546875 88.6011962890625Q325.60009765625 88.6011962890625 360.000244140625 102.00115966796875Q394.400390625 115.401123046875 422.400390625 142.8009033203125L483.4005126953125 69.1995849609375Q451.6002197265625 41.399658203125 420.8001708984375 24.0997314453125Q390.0001220703125 6.7998046875 356.5001220703125 -1.20013427734375Q323.0001220703125 -9.2000732421875 280.800048828125 -9.2000732421875ZM388.598876953125 266.0001220703125Q390.598876953125 274.0001220703125 391.4989013671875 282.0001220703125Q392.39892578125 290.0001220703125 392.39892578125 297.60009765625Q392.39892578125 319.5999755859375 384.49896240234375 339.79974365234375Q376.5989990234375 359.99951171875 361.6990966796875 375.69927978515625Q346.7991943359375 391.3990478515625 325.09942626953125 400.4989013671875Q303.399658203125 409.5987548828125 275.2000732421875 409.5987548828125Q236.2003173828125 409.5987548828125 209.40057373046875 392.7989501953125Q182.600830078125 375.9991455078125 168.4010009765625 349.3995361328125Q154.201171875 322.7999267578125 151.201171875 292.4005126953125H425.3994140625Z"/></g><g transform="translate(113.000,0) scale(0.10000,-0.10000)"><path d="M232.9998779296875 -9.2000732421875Q179.7996826171875 -9.2000732421875 138.9996337890625 6.39996337890625Q98.1995849609375 22 69.89959716796875 46.199951171875Q41.599609375 70.39990234375 24.1995849609375 94.399658203125L100.400634765625 160.400634765625Q118.6005859375 129.2010498046875 152.100341796875 105.30108642578125Q185.60009765625 81.401123046875 233.9998779296875 81.401123046875Q274.199462890625 81.401123046875 297.399169921875 98.00091552734375Q320.598876953125 114.6007080078125 320.598876953125 140.2001953125Q320.598876953125 161.7998046875 305.9990234375 174.599609375Q291.399169921875 187.3994140625 267.3994140625 195.99932861328125Q243.399658203125 204.5992431640625 214.39990234375 211.7991943359375Q186.39990234375 219.19921875 157.099853515625 229.39923095703125Q127.7998046875 239.5992431640625 103.39971923828125 255.59930419921875Q78.9996337890625 271.599365234375 63.99957275390625 296.7994384765625Q48.99951171875 321.99951171875 48.99951171875 359.399658203125Q48.99951171875 423.599853515625 98.899658203125 462.89996337890625Q148.7998046875 502.2000732421875 230.2000732421875 502.2000732421875Q288.2001953125 502.2000732421875 335.9002685546875 478.90008544921875Q383.600341796875 455.60009765625 410.8004150390625 410.2001953125L341.5994873046875 356.599365234375Q322.3995361328125 387.1990966796875 292.09967041015625 402.09906005859375Q261.7998046875 416.9990234375 226.800048828125 416.9990234375Q194.6004638671875 416.9990234375 173.4007568359375 404.19921875Q152.2010498046875 391.3994140625 152.2010498046875 369.7998046875Q152.2010498046875 354.0001220703125 162.00091552734375 343.80029296875Q171.80078125 333.6004638671875 192.70062255859375 326.00054931640625Q213.6004638671875 318.400634765625 246.0003662109375 310.400634765625Q276.2003173828125 303.400634765625 308.2003173828125 293.400634765625Q340.2003173828125 283.400634765625 367.80035400390625 266.80059814453125Q395.400390625 250.2005615234375 412.50042724609375 222.70050048828125Q429.6004638671875 195.200439453125 429.6004638671875 152.400390625Q429.6004638671875 104.4002685546875 405.20037841796875 67.8001708984375Q380.80029296875 31.2000732421875 336.60015869140625 11.0Q292.4000244140625 -9.2000732421875 232.9998779296875 -9.2000732421875Z"/></g><g transform="translate(160.600,0) scale(0.10000,-0.10000)"><path d="M244.4005126953125 -9.2000732421875Q206.600341796875 -9.2000732421875 174.30010986328125 5.29998779296875Q141.9998779296875 19.800048828125 122.99969482421875 52.40020751953125Q103.99951171875 85.0003662109375 103.99951171875 138.4007568359375V613.3992919921875L216.401123046875 674.60009765625V168.80126953125Q216.401123046875 126.6011962890625 228.60107421875 104.30120849609375Q240.801025390625 82.001220703125 274.4010009765625 82.001220703125Q284.4010009765625 82.001220703125 297.6009521484375 84.30120849609375Q310.8009033203125 86.6011962890625 326.0008544921875 90.6011962890625V5Q305.80078125 -2.4000244140625 285.30072021484375 -5.800048828125Q264.8006591796875 -9.2000732421875 244.4005126953125 -9.2000732421875ZM10 406.5987548828125V493H326.0008544921875V406.5987548828125Z"/></g></g><g fill="#23A877"><g transform="translate(198.600,0) scale(0.10000,-0.10000)"><path d="M372.79998779296875 -16.7999267578125Q272.800048828125 -16.7999267578125 196.70010375976562 29.00006103515625Q120.60015869140625 74.800048828125 78.10018920898438 157.10003662109375Q35.6002197265625 239.4000244140625 35.6002197265625 349Q35.6002197265625 458.5999755859375 78.10018920898438 540.3999633789062Q120.60015869140625 622.199951171875 196.70010375976562 667.9999389648438Q272.800048828125 713.7999267578125 372.79998779296875 713.7999267578125Q485.79986572265625 713.7999267578125 567.5997924804688 657.3999938964844Q649.3997192382812 601.0000610351562 684.9996948242188 501.8001708984375L550.2005004882812 453.200439453125Q529.0004272460938 511.6005859375 483.4002990722656 544.3006591796875Q437.8001708984375 577.000732421875 372.79998779296875 577.000732421875Q313.7998046875 577.000732421875 269.9996643066406 549.400634765625Q226.19952392578125 521.800537109375 202.49945068359375 471.1003723144531Q178.79937744140625 420.40020751953125 178.79937744140625 349Q178.79937744140625 277.59979248046875 202.49945068359375 226.39962768554688Q226.19952392578125 175.199462890625 269.9996643066406 147.599365234375Q313.7998046875 119.999267578125 372.79998779296875 119.999267578125Q437.8001708984375 119.999267578125 483.4002990722656 152.79934692382812Q529.0004272460938 185.59942626953125 550.2005004882812 243.799560546875L684.9996948242188 195.39984130859375Q649.3997192382812 97.199951171875 567.5997924804688 40.20001220703125Q485.79986572265625 -16.7999267578125 372.79998779296875 -16.7999267578125Z"/></g></g><g fill="#F4F0E8"><g transform="translate(341.600,0) scale(0.10000,-0.10000)"><path d="M64.799560546875 0V493H176.6011962890625V359.7999267578125L156.2012939453125 356.800048828125Q160.8011474609375 400 184.9010009765625 432.70001220703125Q209.0008544921875 465.4000244140625 243.30078125 483.800048828125Q277.6007080078125 502.2000732421875 312.000732421875 502.2000732421875Q336.2008056640625 502.2000732421875 358.20086669921875 496.20001220703125Q380.200927734375 490.199951171875 403.801025390625 476.1998291015625L349.80029296875 376.1983642578125Q338.600341796875 382.598388671875 321.50030517578125 387.19842529296875Q304.4002685546875 391.7984619140625 288.2001953125 391.7984619140625Q267.0003662109375 391.7984619140625 246.7005615234375 383.99853515625Q226.4007568359375 376.1986083984375 210.40093994140625 359.79876708984375Q194.401123046875 343.39892578125 185.6011962890625 316.5992431640625Q181.201171875 302.5992431640625 178.701171875 280.499267578125Q176.201171875 258.3992919921875 176.201171875 218.19921875V0Z"/></g><g transform="translate(384.100,0) scale(0.10000,-0.10000)"><path d="M280.800048828125 -9.2000732421875Q218.7998046875 -9.2000732421875 173.49969482421875 11.0999755859375Q128.1995849609375 31.4000244140625 99.09954833984375 67.00006103515625Q69.99951171875 102.60009765625 55.8995361328125 148.10009765625Q41.799560546875 193.60009765625 41.799560546875 243.4000244140625Q41.799560546875 292.39990234375 55.59954833984375 338.69989013671875Q69.3995361328125 384.9998779296875 97.299560546875 421.7999267578125Q125.1995849609375 458.5999755859375 168.99969482421875 480.4000244140625Q212.7998046875 502.2000732421875 272.800048828125 502.2000732421875Q330.2000732421875 502.2000732421875 372.70013427734375 482.7000732421875Q415.2001953125 463.2000732421875 442.9002685546875 428.800048828125Q470.600341796875 394.4000244140625 484.400390625 349.9998779296875Q498.200439453125 305.5997314453125 498.200439453125 255.7994384765625Q498.200439453125 249.3992919921875 497.700439453125 236.29937744140625Q497.200439453125 223.199462890625 495.200439453125 210.1993408203125H152.6011962890625Q156.80126953125 151.0001220703125 192.80108642578125 119.8006591796875Q228.8009033203125 88.6011962890625 285.4002685546875 88.6011962890625Q325.60009765625 88.6011962890625 360.000244140625 102.00115966796875Q394.400390625 115.401123046875 422.400390625 142.8009033203125L483.4005126953125 69.1995849609375Q451.6002197265625 41.399658203125 420.8001708984375 24.0997314453125Q390.0001220703125 6.7998046875 356.5001220703125 -1.20013427734375Q323.0001220703125 -9.2000732421875 280.800048828125 -9.2000732421875ZM388.598876953125 266.0001220703125Q390.598876953125 274.0001220703125 391.4989013671875 282.0001220703125Q392.39892578125 290.0001220703125 392.39892578125 297.60009765625Q392.39892578125 319.5999755859375 384.49896240234375 339.79974365234375Q376.5989990234375 359.99951171875 361.6990966796875 375.69927978515625Q346.7991943359375 391.3990478515625 325.09942626953125 400.4989013671875Q303.399658203125 409.5987548828125 275.2000732421875 409.5987548828125Q236.2003173828125 409.5987548828125 209.40057373046875 392.7989501953125Q182.600830078125 375.9991455078125 168.4010009765625 349.3995361328125Q154.201171875 322.7999267578125 151.201171875 292.4005126953125H425.3994140625Z"/></g><g transform="translate(438.700,0) scale(0.10000,-0.10000)"><path d="M219.399658203125 0 17.7996826171875 493H139.6014404296875L264.80029296875 144.2021484375L391.7991943359375 493H511.8009033203125L311.200927734375 0Z"/></g><g transform="translate(492.200,0) scale(0.10000,-0.10000)"><path d="M63.799560546875 0V493H174.6011962890625V0ZM58.5997314453125 573.5994873046875V697.0H180.2010498046875V573.5994873046875Z"/></g><g transform="translate(516.600,0) scale(0.10000,-0.10000)"><path d="M280.800048828125 -9.2000732421875Q218.7998046875 -9.2000732421875 173.49969482421875 11.0999755859375Q128.1995849609375 31.4000244140625 99.09954833984375 67.00006103515625Q69.99951171875 102.60009765625 55.8995361328125 148.10009765625Q41.799560546875 193.60009765625 41.799560546875 243.4000244140625Q41.799560546875 292.39990234375 55.59954833984375 338.69989013671875Q69.3995361328125 384.9998779296875 97.299560546875 421.7999267578125Q125.1995849609375 458.5999755859375 168.99969482421875 480.4000244140625Q212.7998046875 502.2000732421875 272.800048828125 502.2000732421875Q330.2000732421875 502.2000732421875 372.70013427734375 482.7000732421875Q415.2001953125 463.2000732421875 442.9002685546875 428.800048828125Q470.600341796875 394.4000244140625 484.400390625 349.9998779296875Q498.200439453125 305.5997314453125 498.200439453125 255.7994384765625Q498.200439453125 249.3992919921875 497.700439453125 236.29937744140625Q497.200439453125 223.199462890625 495.200439453125 210.1993408203125H152.6011962890625Q156.80126953125 151.0001220703125 192.80108642578125 119.8006591796875Q228.8009033203125 88.6011962890625 285.4002685546875 88.6011962890625Q325.60009765625 88.6011962890625 360.000244140625 102.00115966796875Q394.400390625 115.401123046875 422.400390625 142.8009033203125L483.4005126953125 69.1995849609375Q451.6002197265625 41.399658203125 420.8001708984375 24.0997314453125Q390.0001220703125 6.7998046875 356.5001220703125 -1.20013427734375Q323.0001220703125 -9.2000732421875 280.800048828125 -9.2000732421875ZM388.598876953125 266.0001220703125Q390.598876953125 274.0001220703125 391.4989013671875 282.0001220703125Q392.39892578125 290.0001220703125 392.39892578125 297.60009765625Q392.39892578125 319.5999755859375 384.49896240234375 339.79974365234375Q376.5989990234375 359.99951171875 361.6990966796875 375.69927978515625Q346.7991943359375 391.3990478515625 325.09942626953125 400.4989013671875Q303.399658203125 409.5987548828125 275.2000732421875 409.5987548828125Q236.2003173828125 409.5987548828125 209.40057373046875 392.7989501953125Q182.600830078125 375.9991455078125 168.4010009765625 349.3995361328125Q154.201171875 322.7999267578125 151.201171875 292.4005126953125H425.3994140625Z"/></g><g transform="translate(571.200,0) scale(0.10000,-0.10000)"><path d="M171.9998779296875 0 21.9996337890625 493H140.0013427734375L228.400634765625 169.6025390625L327.5994873046875 493H423.4007568359375L522.599609375 171.6025390625L611.9989013671875 493H730.400634765625L579.400390625 0H479.3990478515625L376.0001220703125 336.1976318359375L273.4012451171875 0Z"/></g><g transform="translate(646.900,0) scale(0.10000,-0.10000)"><path d="M232.9998779296875 -9.2000732421875Q179.7996826171875 -9.2000732421875 138.9996337890625 6.39996337890625Q98.1995849609375 22 69.89959716796875 46.199951171875Q41.599609375 70.39990234375 24.1995849609375 94.399658203125L100.400634765625 160.400634765625Q118.6005859375 129.2010498046875 152.100341796875 105.30108642578125Q185.60009765625 81.401123046875 233.9998779296875 81.401123046875Q274.199462890625 81.401123046875 297.399169921875 98.00091552734375Q320.598876953125 114.6007080078125 320.598876953125 140.2001953125Q320.598876953125 161.7998046875 305.9990234375 174.599609375Q291.399169921875 187.3994140625 267.3994140625 195.99932861328125Q243.399658203125 204.5992431640625 214.39990234375 211.7991943359375Q186.39990234375 219.19921875 157.099853515625 229.39923095703125Q127.7998046875 239.5992431640625 103.39971923828125 255.59930419921875Q78.9996337890625 271.599365234375 63.99957275390625 296.7994384765625Q48.99951171875 321.99951171875 48.99951171875 359.399658203125Q48.99951171875 423.599853515625 98.899658203125 462.89996337890625Q148.7998046875 502.2000732421875 230.2000732421875 502.2000732421875Q288.2001953125 502.2000732421875 335.9002685546875 478.90008544921875Q383.600341796875 455.60009765625 410.8004150390625 410.2001953125L341.5994873046875 356.599365234375Q322.3995361328125 387.1990966796875 292.09967041015625 402.09906005859375Q261.7998046875 416.9990234375 226.800048828125 416.9990234375Q194.6004638671875 416.9990234375 173.4007568359375 404.19921875Q152.2010498046875 391.3994140625 152.2010498046875 369.7998046875Q152.2010498046875 354.0001220703125 162.00091552734375 343.80029296875Q171.80078125 333.6004638671875 192.70062255859375 326.00054931640625Q213.6004638671875 318.400634765625 246.0003662109375 310.400634765625Q276.2003173828125 303.400634765625 308.2003173828125 293.400634765625Q340.2003173828125 283.400634765625 367.80035400390625 266.80059814453125Q395.400390625 250.2005615234375 412.50042724609375 222.70050048828125Q429.6004638671875 195.200439453125 429.6004638671875 152.400390625Q429.6004638671875 104.4002685546875 405.20037841796875 67.8001708984375Q380.80029296875 31.2000732421875 336.60015869140625 11.0Q292.4000244140625 -9.2000732421875 232.9998779296875 -9.2000732421875Z"/></g></g></g>
<path d="M353.92,21.83 L329.94,53.29 L348.63,67.54 L372.60,36.08 Z M317.88,107.87 L341.86,76.41 L323.17,62.16 L299.20,93.62 Z" fill="#F4F0E8"/><path d="M299.20,36.08 L323.17,67.54 L341.86,53.29 L317.88,21.83 Z M372.60,93.62 L348.63,62.16 L329.94,76.41 L353.92,107.87 Z" fill="#23A877"/>
</svg>